# xmcd CD database file
#
# Track frame offsets:
#	150
#	68131
#	147154
#
# Disc length: 1966 seconds
#
# Revision: 1
# Processed by: cddbd v1.5.2PL0 Copyright (c) Steve Scherf et al.
# Submitted via: CDex 1.51
#
DISCID=2507ac03
DTITLE=Jürgen Pfaff - Türkis - Die Delfin Meditation
DYEAR=2007
DGENRE=New Age
TTITLE0=Erlebnismeditation - Türkis
TTITLE1=Klangpoesie - Türkis
TTITLE2=Klangpoesie - Türkis
EXTD=YEAR: 2007
EXTT0=
EXTT1=
EXTT2=
PLAYORDER=
